<svg xmlns="http://www.w3.org/2000/svg" xmlns:xlink="http://www.w3.org/1999/xlink" viewBox="0 0 500 500"><defs><style>.cls-1{isolation:isolate;}.cls-2{fill:#fffbe6;}.cls-3{fill:#e2d6a6;}.cls-4{fill:#e2d59f;}.cls-5{fill:#f7eec9;}.cls-6{fill:#514a2c;}.cls-7{fill:#684e3a;}.cls-8{fill:#775e47;}.cls-9{fill:#563f2d;}.cls-10{fill:#8e7854;}.cls-11{fill:#bed137;}.cls-12{fill:#dee239;}.cls-13{fill:#eae1b9;}.cls-14{opacity:0.8;mix-blend-mode:overlay;fill:url(#linear-gradient);}.cls-15{fill:#fff;}</style><linearGradient id="linear-gradient" x1="208.03" y1="73.36" x2="279.01" y2="466.12" gradientUnits="userSpaceOnUse"><stop offset="0" stop-color="#ffeb97"/><stop offset="1" stop-color="#64003e"/></linearGradient></defs><g class="cls-1"><g id="Layer_1" data-name="Layer 1"><path class="cls-2" d="M373.85,420.34c18.91-15.68,27.79-33.19,32.27-42.26,13.73-27.77,11.88-57.39,8.6-116.45a75.62,75.62,0,0,0-6.25-27.4A82.75,82.75,0,0,0,400.78,221c-34.24-47.14-104.52-64.54-104.52-64.54C250.07,145,150.2,134.76,128.78,181.35c-3.3,7.18-10.73,28.75,11.86,68.67,51.1,127.75,85.93,72,85.93,72-27.23,27.11-38.31,63.41-26.34,89.86,18.87,41.67,85.11,37.16,100.64,36.1C312.24,447.22,344.65,444.56,373.85,420.34Z"/><path class="cls-3" d="M235,425.3a388.55,388.55,0,0,1,20.75-135.13c-6.85,11.46-14.36,15.67-21.58,17.91C192.54,321,132.56,248.16,155.14,157.55c-31,14.24-43,43.64-14.5,92.47,51.1,127.75,85.93,72,85.93,72a424.5,424.5,0,0,0-18.2,103"/><path class="cls-3" d="M203.35,273.25C180.12,322,168.51,398.68,228.9,440.49L273,282.54Z"/><path class="cls-2" d="M197.44,267.8c-9.77,53.13-15,132,54.16,156.71l30.86-154.33Z"/><path class="cls-4" d="M287.94,237.33c3,8,21.4,53.26-27.88,49.28C292.57,281.23,293.34,258.82,287.94,237.33Z"/><path class="cls-5" d="M158,254.25c31.86-2,55.75-19.41,72.68-59.24,36.84-9.95,138.91,25.56,135.4,50.28-22.9,161.29-125.44,8-181.2,44.81C154,310.54,158,254.25,158,254.25Z"/><path class="cls-4" d="M266.14,227.88c-22.41-20.8-62.89,10.12-31.18,34.4S287.29,247.51,266.14,227.88Z"/><path class="cls-6" d="M260.07,234c-14.19-13.17-39.81,6.4-19.74,21.76S273.45,246.44,260.07,234Z"/><path class="cls-5" d="M259.05,240.39c-1.81-6.39-12.84-5.24-9.7,2.85S260.76,246.43,259.05,240.39Z"/><ellipse class="cls-7" cx="139.09" cy="336.39" rx="29.37" ry="32.86"/><path class="cls-8" d="M134.23,214c-47,34.06-90.46,130.9-29,206.27,2.47-28.56-26.37-54.47,88.62-101.76C190.17,281.93,162.71,241,134.23,214Z"/><path class="cls-7" d="M193.85,318.47C190.17,281.93,162.71,241,134.23,214c-.91.66-14.14,12.21-15,12.91,17.94,22.14,41.25,28.45,44.8,52.77C87.32,319,84.33,352.82,86.82,376.22c4.87,14.27,7.49,30.62,18.41,44C107.7,391.67,78.86,365.76,193.85,318.47Z"/><path class="cls-9" d="M96.78,352.32c18.91,25.39,76.42,31.87,95.16,22.89,10.5-36.49,4.9-62.71-9-92.58-60.24,22.4-35.05,58.93-50.28,75.17C125.15,365.76,102.75,346.85,96.78,352.32Z"/><path class="cls-8" d="M182.9,282.63l-.63.25c12.18,27.75,16.57,53,6.68,87.36-12.06,5.78-40.21,5.15-63.77-2.81-10.78-3.65-20.49-6.61-15.14-3.14,24.8,16.15,66.41,21.14,81.82,13.76C202.37,341.55,196.84,312.5,182.9,282.63Z"/><path class="cls-10" d="M112.21,234.67c1.66,19.25-24.89,97.57-36.84,114.17C71.39,305,82.34,270.85,112.21,234.67Z"/><path class="cls-11" d="M161.53,154.79c31.82-18,160.28-20.9,185.83-79s24.38,1.16-3.49,33.68c0,0,44.13-20.91-1.16,20.9,0,0,73.17,10.45-26.71,33.68Z"/><path class="cls-12" d="M348.11,131.37c-2.83,2.73-6.28,5.88-10.5,9.52,0,0,17.8,3.15,23.63,8.73C379.66,139.49,358.7,133.56,348.11,131.37Z"/><path class="cls-12" d="M344,86.49C360.1,53,365.69,59.42,361.76,76.82c8.25-24.86,3.45-41.6-14.4-1-25.55,58.07-154,61-185.83,79l5.31.32C210.7,142.13,319.11,138.49,344,86.49Z"/><path class="cls-12" d="M349,107.29A86.32,86.32,0,0,1,339.46,120s13.58-5.89,18-4.45C370.93,100,357.2,104.05,349,107.29Z"/><path class="cls-12" d="M241,151.71c23.56-7.64,140.38-37.51,41.48,3C243.63,157.18,241,151.71,241,151.71Z"/><path class="cls-2" d="M155.14,157.55c10.83-15.14,72.89-35.71,95.79-37.7s10,12.28-29.2,21.57-63.39,16.59-9,20.91Z"/><path class="cls-2" d="M174.93,156.19c28.88-9,106.54-16.43,149.85,12.94Z"/><path class="cls-5" d="M343.69,230.36c20.91,6,77.16,37.83,11.45,24.39Z"/><path class="cls-5" d="M331.15,218.11c21.71,1.07,83.74,19.31,16.69,21.16Z"/><path class="cls-5" d="M338.54,249.27c21.36,4,80.29,30.65,13.62,23.25Z"/><path class="cls-5" d="M336.63,262.11c20.73,6.58,76,40.05,10.74,24.71Z"/><path class="cls-5" d="M332.32,273.35c19.64,9.34,69.87,50,7.27,25.95Z"/><path class="cls-5" d="M332.26,283.15c16.66,14,55,66,.5,27Z"/><path class="cls-5" d="M319.22,291.86c16.39,14.3,53.78,67,0,26.95Z"/><path class="cls-5" d="M306.85,295.57C319.66,313.15,337.92,363,294.41,312Z"/><path class="cls-13" d="M158,239.32c-14.94-3.48-73.18-30.37-21.41-69.2Z"/><path class="cls-2" d="M392.15,353.16c6.61,19.44,5.52,59.24-5.51,29.07C386.64,382.23,386.44,336.42,392.15,353.16Z"/><path class="cls-2" d="M395.2,331.34c9,18.46,12.84,58.09-1.85,29.53C393.35,360.87,387.44,315.43,395.2,331.34Z"/><path class="cls-2" d="M399.84,310.1c9,18.47,12.85,58.09-1.84,29.53C398,339.63,392.09,294.19,399.84,310.1Z"/><path class="cls-2" d="M404.49,291.52c9,18.46,12.85,58.09-1.84,29.52C402.65,321,396.74,275.61,404.49,291.52Z"/><path class="cls-2" d="M409.14,272.93c9,18.47,12.84,58.1-1.84,29.53C407.3,302.46,401.39,257,409.14,272.93Z"/><path class="cls-2" d="M408,251.37c13.28,15.66,26.84,53.09,5.53,29.06C413.56,280.43,396.58,237.88,408,251.37Z"/><path class="cls-2" d="M406,232c14.5,14.54,31.05,50.75,7.86,28.52C413.87,260.53,393.5,219.49,406,232Z"/><path class="cls-14" d="M395.08,394.27c-.44-2.8-3.21-4.81-6-6.19,1.85,3.57,3.29,5.2,4.36,5,3.36-.55,3.63-16.23,1.22-29.8,10.91,19.68,10.08-3,4.51-21.52,10.06,18.33,10.29,1.1,6-16.17,8.7,14.28,8.71-2.14,4.64-18.58,10.14,16.63,8.49-8.39,2.34-26.58.16-.8.32-1.6.47-2.39.56,1.46.92,2.36.92,2.36,17.37,19.59,11.57-1.65,1.65-18.66,19.34,17.82,7.51-9.9-5.53-25.67-12.22-28-45.36-51.25-84.94-67a88.83,88.83,0,0,0-8.51-5.07c23.65-5.51,37.55-10.3,45-14.41l.05,0c.53-.29,1-.58,1.48-.86l.17-.1c.44-.27.84-.54,1.22-.8l.13-.1a10.88,10.88,0,0,0,3.9-4.14.06.06,0,0,1,0,0,3.54,3.54,0,0,0,.24-.74h0A3.75,3.75,0,0,0,368,140h0c-.13-.21-.27-.42-.43-.63l0,0a6.05,6.05,0,0,0-.54-.61h0a14.39,14.39,0,0,0-3.14-2.24l-.09,0-.86-.45-.13-.06-.92-.43-.08,0c-1.05-.47-2.16-.9-3.3-1.3l-.19-.06-.92-.31-.28-.09-.88-.27-.27-.09-.93-.26-.21-.07c-.77-.22-1.54-.42-2.3-.61h0l-1.06-.26-.2,0-.86-.21-.26-.06-.8-.17-.21-.05c-3.65-.78-6.34-1.17-6.34-1.17a194.38,194.38,0,0,0,14.74-14.81s0,0,0,0a48.93,48.93,0,0,0,3.79-4.9l.06-.1a17.73,17.73,0,0,0,1-1.73l.07-.14c.8-1.63.89-2.74.47-3.43,0,0,0,0,0,0a1.67,1.67,0,0,0-.56-.53l-.07,0a5.85,5.85,0,0,0-3.35-.29h-.12c-.43.06-.87.14-1.34.23l-.2,0c-.49.11-1,.22-1.5.36h0c-1.09.29-2.21.64-3.32,1l-.22.08-1.4.5-.24.09c-3.62,1.36-6.62,2.78-6.62,2.78,8.39-9.79,14.34-22,17.89-32.69h0s0,0,0-.06c1-3.08,1.84-6,2.45-8.76a.14.14,0,0,0,0-.06c.45-2,.79-3.89,1-5.62l0-.24a37.07,37.07,0,0,0,.35-4.4c0-.14,0-.28,0-.42,0-.37,0-.73,0-1.07l0-.5c0-.49-.1-.94-.17-1.36,0-.2-.07-.4-.12-.59a4.26,4.26,0,0,0-.16-.54,5.11,5.11,0,0,0-.21-.52c-.06-.13-.11-.26-.17-.37a2.78,2.78,0,0,0-.48-.57c-.07-.06-.14-.09-.21-.14a1.45,1.45,0,0,0-.47-.19l-.23,0a2,2,0,0,0-.78.09l-.16.07a3.94,3.94,0,0,0-.81.42l-.26.18A13.13,13.13,0,0,0,359,54.43l-.31.39c-.38.48-.78,1-1.2,1.61l-.21.3c-.49.7-1,1.49-1.52,2.36-.11.17-.23.37-.34.56-.44.74-.9,1.53-1.38,2.38-.12.23-.25.46-.39.7-.57,1.05-1.17,2.18-1.78,3.39-.11.21-.21.43-.31.64-.53,1-1.08,2.18-1.64,3.36-.17.37-.35.75-.54,1.13-.66,1.45-1.35,3-2.06,4.57-13.48,30.63-55.58,45.89-97,56.14,15.13-7.13,16.39-13.49.6-12.11-22.9,2-85,22.56-95.79,37.7h0l-.11,0q-2.66,1.23-5.12,2.6l-.76.44c-1.44.82-2.81,1.69-4.14,2.59l-.75.51a53.09,53.09,0,0,0-6.17,5L137,169.84l-.39.39,0-.11c-28.31,21.24-23.7,38.88-11.29,51.1-1.47,1.33-2.93,2.73-4.38,4.17-.93.8-1.58,1.35-1.75,1.48l.15.18c-2.41,2.49-4.79,5.12-7.11,7.91,0-.09,0-.2,0-.29C82.34,270.85,71.39,305,75.37,348.84l.16-.23c2.25,24.29,11.19,48.92,29.7,71.62,1.48-17.14-8.27-33.32,8.49-53.73,22.93,13.14,57,17.77,73.87,13.06a99,99,0,0,0,21.1,42.74,58.51,58.51,0,0,0,9.86,10.07C271.82,474.74,398.31,415.06,395.08,394.27Zm-6.63-5.82.12-1.42c.12.27.23.49.35.74C388.76,388,388.62,388.22,388.45,388.45Zm9.27-51h0v0A0,0,0,0,0,397.72,337.44Z"/><path class="cls-15" d="M168.24,234.77q-.39-.3-.81-.69a9.8,9.8,0,0,1-1.63-2,4.75,4.75,0,0,1,3.72,1.18,4.05,4.05,0,0,1,1,1.54Z"/></g></g></svg>