<svg xmlns="http://www.w3.org/2000/svg" viewBox="0 0 500 500"><defs><style>.cls-1{fill:#2c5fa7;}.cls-2{fill:#244987;}.cls-3{fill:none;stroke:#abd0e4;stroke-miterlimit:10;stroke-width:6px;}.cls-4{fill:#abd0e4;}</style></defs><g id="Layer_6" data-name="Layer 6"><circle class="cls-1" cx="250" cy="250" r="221.1"/><path class="cls-2" d="M99.55,241.08c23.43-56.36,31.6-80.4,34.08-91.2a78.18,78.18,0,0,1,8.88-21.6c5.58-9.37,9.85-12,11-12.72,7.41-4.35,15.14-3.34,20.52-2.64,4.86.63,17.56,2.29,23.4,12a21.67,21.67,0,0,1,2.64,7.44c1.58,9.62-3.68,16.91-13.14,33-7.16,12.17-10.73,18.26-12.54,23.4-2.71,7.71-8.12,23.28-.72,31,2.79,2.89,7.82,5,12.28,3.76,10.46-2.86,7.63-22.44,18.68-33.28,11.46-11.24,32.1-7.46,43.92-5.28,10.23,1.88,41.75,9.16,121,86.28,6.13,6,11.06,10.91,14.16,14l-28.08,5.28,34.8,22.08q-9.49.88-19.2,1.68T352,315.72L376.7,345a132.25,132.25,0,0,1-48.19-17.52A127.12,127.12,0,0,1,317,319.56a315.62,315.62,0,0,1-55.2-2.88c-34.73-4.88-63.94-9-88.82-31.3-6.69-6-24.57-22.46-29.71-49-1.51-7.77-4.22-21.75,1.65-36.36,3.07-7.63,6.65-10.87,14-24.79a228.17,228.17,0,0,0,9.73-20.81c-9,22.06-25,50.81-53.52,74.88A179.6,179.6,0,0,1,99.55,241.08Z"/><path class="cls-3" d="M275.79,301.26a22,22,0,0,0-10.25,8.52c-6.35,10.26-.77,21.83-.37,22.65l-78.11.71-29.51,17.34"/><path class="cls-3" d="M160.84,242a79.64,79.64,0,0,0,9.83,15c15.53,18.59,41.47,31.87,54.36,34.45a18,18,0,0,1,8.19,3.61c4.37,3.55,5.86,8.64,6.52,11.46,5.12,21.75,1.37,49.54,1.37,49.54a204.1,204.1,0,0,0,.07,53.44"/><path class="cls-3" d="M272.4,412.08l-65.39-.4"/><path class="cls-4" d="M105.24,227.88c23.43-56.36,31.6-80.4,34.08-91.2a78.18,78.18,0,0,1,8.88-21.6c5.58-9.37,9.85-12,11-12.72,7.41-4.35,15.14-3.34,20.52-2.64,4.86.63,17.56,2.29,23.4,12a21.67,21.67,0,0,1,2.64,7.44c1.58,9.62-3.68,16.91-13.14,33-7.16,12.17-10.73,18.26-12.54,23.4-2.71,7.71-8.12,23.28-.72,31,2.79,2.89,7.82,5,12.28,3.76,10.46-2.86,7.63-22.44,18.68-33.28,11.46-11.24,32.1-7.46,43.92-5.28,10.23,1.88,41.75,9.16,121,86.28,6.13,6,11.06,10.91,14.16,14l-28.08,5.28,34.8,22.08q-9.5.89-19.2,1.68t-19.2,1.44l24.67,29.28a132.25,132.25,0,0,1-48.19-17.52,127.12,127.12,0,0,1-11.52-7.92,315.62,315.62,0,0,1-55.2-2.88c-34.73-4.88-63.94-9-88.82-31.3-6.69-6-24.57-22.46-29.72-49-1.5-7.77-4.21-21.75,1.66-36.36,3.07-7.63,6.64-10.87,14-24.79a228.17,228.17,0,0,0,9.73-20.81c-9,22.06-25,50.81-53.52,74.88A179.6,179.6,0,0,1,105.24,227.88Z"/></g></svg>